<svg width="20" height="20" viewBox="0 0 20 20" fill="none" xmlns="http://www.w3.org/2000/svg">
<g clip-path="url(#clip0_1_743)">
<path d="M5.78333 4.16652C5.78311 4.60855 5.60731 5.03239 5.29459 5.34479C4.98187 5.6572 4.55786 5.83258 4.11583 5.83236C3.67381 5.83214 3.24997 5.65633 2.93757 5.34361C2.62516 5.0309 2.44978 4.60688 2.45 4.16486C2.45022 3.72283 2.62603 3.29899 2.93875 2.98659C3.25146 2.67419 3.67547 2.4988 4.1175 2.49902C4.55953 2.49924 4.98336 2.67505 5.29577 2.98777C5.60817 3.30049 5.78356 3.7245 5.78333 4.16652ZM5.83333 7.06652H2.5V17.4999H5.83333V7.06652ZM11.1 7.06652H7.78333V17.4999H11.0667V12.0249C11.0667 8.97486 15.0417 8.69152 15.0417 12.0249V17.4999H18.3333V10.8915C18.3333 5.74986 12.45 5.94152 11.0667 8.46652L11.1 7.06652Z" fill="black"/>
</g>
<defs>
<clipPath id="clip0_1_743">
<rect width="20" height="20" fill="white"/>
</clipPath>
</defs>
</svg>
