<svg width="20" height="20" viewBox="0 0 20 20" fill="none" xmlns="http://www.w3.org/2000/svg">
<g clip-path="url(#clip0_1_637)">
<path d="M16.7358 12.6668L17.7375 13.2676C17.7993 13.3046 17.8504 13.357 17.886 13.4196C17.9215 13.4823 17.9401 13.5531 17.9401 13.6251C17.9401 13.6971 17.9215 13.7679 17.886 13.8306C17.8504 13.8932 17.7993 13.9456 17.7375 13.9826L10.4292 18.3676C10.2995 18.4455 10.1512 18.4866 9.99999 18.4866C9.84879 18.4866 9.70043 18.4455 9.57082 18.3676L2.26249 13.9826C2.2007 13.9456 2.14955 13.8932 2.11403 13.8306C2.07851 13.7679 2.05984 13.6971 2.05984 13.6251C2.05984 13.5531 2.07851 13.4823 2.11403 13.4196C2.14955 13.357 2.2007 13.3046 2.26249 13.2676L3.26416 12.6668L9.99999 16.7084L16.7358 12.6668ZM16.7358 8.7501L17.7375 9.35093C17.7993 9.38793 17.8504 9.44031 17.886 9.50296C17.9215 9.56562 17.9401 9.63641 17.9401 9.70843C17.9401 9.78045 17.9215 9.85125 17.886 9.9139C17.8504 9.97656 17.7993 10.0289 17.7375 10.0659L9.99999 14.7084L2.26249 10.0659C2.2007 10.0289 2.14955 9.97656 2.11403 9.9139C2.07851 9.85125 2.05984 9.78045 2.05984 9.70843C2.05984 9.63641 2.07851 9.56562 2.11403 9.50296C2.14955 9.44031 2.2007 9.38793 2.26249 9.35093L3.26416 8.7501L9.99999 12.7918L16.7358 8.7501ZM10.4283 1.09093L17.7375 5.47593C17.7993 5.51293 17.8504 5.56531 17.886 5.62796C17.9215 5.69062 17.9401 5.76141 17.9401 5.83343C17.9401 5.90545 17.9215 5.97625 17.886 6.0389C17.8504 6.10156 17.7993 6.15394 17.7375 6.19093L9.99999 10.8334L2.26249 6.19093C2.2007 6.15394 2.14955 6.10156 2.11403 6.0389C2.07851 5.97625 2.05984 5.90545 2.05984 5.83343C2.05984 5.76141 2.07851 5.69062 2.11403 5.62796C2.14955 5.56531 2.2007 5.51293 2.26249 5.47593L9.57082 1.09093C9.70043 1.01306 9.84879 0.971924 9.99999 0.971924C10.1512 0.971924 10.2995 1.01306 10.4292 1.09093H10.4283ZM9.99999 2.77677L4.90582 5.83343L9.99999 8.8901L15.0942 5.83343L9.99999 2.77677Z" fill="black"/>
</g>
<defs>
<clipPath id="clip0_1_637">
<rect width="20" height="20" fill="white"/>
</clipPath>
</defs>
</svg>
