<svg width="120" height="120" viewBox="0 0 120 120" fill="none" xmlns="http://www.w3.org/2000/svg">
<g clip-path="url(#clip0_1_543)">
<path d="M22.915 86.605C17.765 81.135 15 75 15 65.055C15 47.555 27.285 31.87 45.15 24.115L49.615 31.005C32.94 40.025 29.68 51.73 28.38 59.11C31.065 57.72 34.58 57.235 38.025 57.555C47.045 58.39 54.155 65.795 54.155 75C54.155 79.6413 52.3113 84.0925 49.0294 87.3744C45.7475 90.6562 41.2963 92.5 36.655 92.5C31.29 92.5 26.16 90.05 22.915 86.605ZM72.915 86.605C67.765 81.135 65 75 65 65.055C65 47.555 77.285 31.87 95.15 24.115L99.615 31.005C82.94 40.025 79.68 51.73 78.38 59.11C81.065 57.72 84.58 57.235 88.025 57.555C97.045 58.39 104.155 65.795 104.155 75C104.155 79.6413 102.311 84.0925 99.0294 87.3744C95.7475 90.6562 91.2963 92.5 86.655 92.5C81.29 92.5 76.16 90.05 72.915 86.605Z" fill="#C9C9C9"/>
</g>
<defs>
<clipPath id="clip0_1_543">
<rect width="120" height="120" fill="white"/>
</clipPath>
</defs>
</svg>
