<svg width="20" height="20" viewBox="0 0 20 20" fill="none" xmlns="http://www.w3.org/2000/svg">
<g clip-path="url(#clip0_1_748)">
<path d="M18.4683 4.71327C17.8321 4.99468 17.1575 5.1795 16.4667 5.26161C17.1948 4.82613 17.7398 4.14078 18 3.33327C17.3167 3.73994 16.5675 4.02494 15.7867 4.17911C15.2622 3.61792 14.567 3.24574 13.8091 3.12043C13.0513 2.99511 12.2733 3.12368 11.5961 3.48615C10.9188 3.84862 10.3803 4.42468 10.0643 5.12477C9.7482 5.82486 9.67229 6.60976 9.84833 7.35744C8.46259 7.28798 7.10694 6.92788 5.8694 6.30049C4.63187 5.67311 3.5401 4.79248 2.665 3.71577C2.35524 4.24781 2.19246 4.85263 2.19333 5.46827C2.19333 6.67661 2.80833 7.74411 3.74333 8.36911C3.19001 8.35169 2.64886 8.20226 2.165 7.93327V7.9766C2.16517 8.78136 2.44364 9.56129 2.9532 10.1842C3.46277 10.807 4.17207 11.2345 4.96083 11.3941C4.44718 11.5333 3.90859 11.5538 3.38583 11.4541C3.60822 12.1468 4.04167 12.7526 4.62549 13.1867C5.20931 13.6208 5.91427 13.8614 6.64166 13.8749C5.91873 14.4427 5.09098 14.8624 4.20573 15.1101C3.32048 15.3577 2.3951 15.4285 1.4825 15.3183C3.07558 16.3428 4.93008 16.8867 6.82416 16.8849C13.235 16.8849 16.7408 11.5741 16.7408 6.96827C16.7408 6.81827 16.7367 6.66661 16.73 6.51827C17.4124 6.02508 18.0013 5.41412 18.4692 4.71411L18.4683 4.71327Z" fill="black"/>
</g>
<defs>
<clipPath id="clip0_1_748">
<rect width="20" height="20" fill="white"/>
</clipPath>
</defs>
</svg>
